<svg width="44" height="46" viewBox="0 0 44 46" fill="none" xmlns="http://www.w3.org/2000/svg">
<path fill-rule="evenodd" clip-rule="evenodd" d="M36.1867 26.0565C36.0954 26.0324 36.0003 26.0265 35.9068 26.0392C35.8133 26.0518 35.7232 26.0828 35.6416 26.1303C35.56 26.1778 35.4886 26.2409 35.4315 26.3159C35.3743 26.391 35.3325 26.4766 35.3084 26.5679C34.7847 28.5512 33.7952 30.3897 32.4311 31.9302C31.7927 31.3017 30.3787 30.624 27.6463 32.2153L21.8101 35.6146C21.6769 35.6925 21.5384 35.7607 21.3954 35.8186C21.424 35.7412 21.4495 35.6611 21.4717 35.5783C21.7977 34.3616 21.0777 33.0922 19.8329 32.6886C19.802 32.6786 19.7706 32.6707 19.7387 32.6649C18.0779 32.3654 16.4313 31.7701 15.1081 31.2917C14.6444 31.124 14.2064 30.9657 13.8321 30.8444C13.1031 30.6079 12.4107 30.6152 11.7616 30.758C10.7053 29.2542 9.97648 27.5454 9.62221 25.7422L10.0609 26.1505C10.13 26.2148 10.2111 26.2648 10.2995 26.2978C10.388 26.3308 10.4821 26.346 10.5764 26.3426C10.6707 26.3392 10.7635 26.3173 10.8493 26.2781C10.9352 26.2388 11.0125 26.1831 11.0768 26.114C11.1411 26.0449 11.1912 25.9638 11.2241 25.8754C11.2571 25.7869 11.2723 25.6928 11.2689 25.5985C11.2655 25.5042 11.2436 25.4114 11.2044 25.3256C11.1652 25.2397 11.1094 25.1624 11.0403 25.0981L9.16257 23.3506C9.08274 23.2763 8.98706 23.2211 8.88277 23.1893C8.77847 23.1574 8.6683 23.1497 8.5606 23.1668C8.45289 23.1838 8.35047 23.2251 8.26109 23.2876C8.17172 23.3501 8.09773 23.4321 8.04473 23.5274L6.79815 25.7693C6.70552 25.9359 6.68286 26.1324 6.73517 26.3158C6.78748 26.4991 6.91046 26.6541 7.07707 26.7467C7.24368 26.8393 7.44026 26.862 7.62356 26.8097C7.80687 26.7574 7.96189 26.6344 8.05452 26.4678L8.23736 26.139C8.61278 27.9691 9.33688 29.7098 10.3702 31.2663C10.143 31.3793 9.91964 31.4999 9.70046 31.6277L5.53387 34.0401L5.22436 33.4933C4.79589 32.736 3.83097 32.4685 3.07377 32.8972L1.43619 33.8239C1.07016 34.0311 0.806471 34.3692 0.693717 34.7761C0.580963 35.183 0.632893 35.6086 0.840162 35.9745L5.65435 44.4811C5.94446 44.9934 6.47983 45.2815 7.0304 45.2815C7.29355 45.2815 7.56011 45.2158 7.80494 45.0772L9.44252 44.1504C10.1997 43.7218 10.4671 42.7571 10.0385 41.9998L9.64027 41.2961L10.3855 40.8658L17.7803 42.8471C18.2105 42.9625 18.6386 43.0197 19.0597 43.0197C19.9117 43.0197 20.7353 42.7849 21.4881 42.3214L32.0797 35.7997C32.8695 35.3134 33.2574 34.2766 33.1148 33.308C34.8306 31.5176 36.0681 29.3211 36.6982 26.9347C36.7468 26.7504 36.7202 26.5544 36.6243 26.3897C36.5283 26.225 36.3709 26.1051 36.1867 26.0565ZM8.73437 42.8995L7.09679 43.8263C7.03085 43.864 6.94271 43.8395 6.90515 43.7732L2.09097 35.2666C2.08193 35.2506 2.0762 35.233 2.07412 35.2147C2.07204 35.1964 2.07364 35.1779 2.07884 35.1603C2.08603 35.1342 2.10319 35.0983 2.14406 35.0752L3.78165 34.1484C3.81418 34.1306 3.85242 34.1261 3.8882 34.136C3.92398 34.1459 3.95448 34.1694 3.97319 34.2015L8.78747 42.7079C8.8053 42.7404 8.80972 42.7787 8.79981 42.8144C8.78989 42.8502 8.76642 42.8807 8.73437 42.8995ZM31.3259 34.5758L20.7344 41.0976C19.9434 41.5845 19.0747 41.7061 18.1522 41.4589L10.4699 39.4004C10.2858 39.3512 10.0896 39.377 9.92453 39.4722L8.93212 40.0452L6.24175 35.2914L10.4206 32.872C11.6964 32.1332 12.5564 31.9418 13.3885 32.2119C13.7401 32.3259 14.1475 32.4731 14.6193 32.6437C15.9794 33.1355 17.6687 33.7462 19.4296 34.07C19.93 34.252 20.2098 34.7336 20.0831 35.2064C19.9483 35.7094 19.5696 35.9289 18.9576 35.8603C18.1098 35.6854 17.3003 35.4545 16.4439 35.2099C16.0329 35.0925 15.608 34.9711 15.1704 34.854C14.9863 34.8047 14.7901 34.8305 14.625 34.9258C14.4599 35.0211 14.3395 35.1781 14.2901 35.3622C14.2408 35.5464 14.2666 35.7426 14.3619 35.9076C14.4573 36.0727 14.6142 36.1932 14.7984 36.2425C15.2245 36.3567 15.6436 36.4764 16.049 36.5922C16.9434 36.8476 18.7251 37.28 18.7301 37.2808L19.4564 37.3989C20.5893 37.5802 21.5959 37.4029 22.5334 36.8571L28.3697 33.4578C29.9189 32.5556 31.14 32.4265 31.5559 33.1213C31.8352 33.5873 31.717 34.335 31.3259 34.5758ZM4.15782 35.6165C4.16892 35.6925 4.16495 35.7699 4.14614 35.8443C4.12732 35.9187 4.09403 35.9887 4.04816 36.0503C4.0023 36.1119 3.94475 36.1638 3.87881 36.2031C3.81287 36.2425 3.73983 36.2684 3.66386 36.2795C3.58789 36.2906 3.51048 36.2867 3.43604 36.2679C3.36161 36.249 3.2916 36.2157 3.23004 36.1699C3.16847 36.124 3.11653 36.0665 3.0772 36.0005C3.03787 35.9346 3.01192 35.8615 3.00081 35.7856C2.97839 35.6321 3.01784 35.4761 3.11047 35.3518C3.20311 35.2274 3.34135 35.145 3.49478 35.1225C3.6482 35.1001 3.80426 35.1396 3.9286 35.2322C4.05295 35.3248 4.1354 35.4631 4.15782 35.6165ZM31.3465 19.3494C31.8045 19.3494 32.1918 19.0362 32.2882 18.5878C32.3847 18.1394 32.1605 17.6947 31.7432 17.5064L22.8555 13.4949C22.7625 13.453 22.6618 13.4313 22.5598 13.4313C22.4578 13.4313 22.3571 13.453 22.2641 13.4949L19.5601 14.7154C19.5435 14.5371 19.461 14.3715 19.3286 14.2509C19.1963 14.1302 19.0237 14.0634 18.8447 14.0633H16.5785C16.3879 14.0633 16.2051 14.1391 16.0703 14.2739C15.9355 14.4086 15.8598 14.5915 15.8598 14.7821V16.3855L13.3762 17.5065C12.9588 17.6949 12.7348 18.1396 12.8313 18.588C12.9278 19.0364 13.3151 19.3495 13.773 19.3495H14.4094V27.2709H13.7349C13.5443 27.2709 13.3615 27.3466 13.2267 27.4814C13.0919 27.6162 13.0161 27.799 13.0161 27.9897V29.874C13.0161 30.0647 13.0919 30.2475 13.2267 30.3823C13.3615 30.5171 13.5443 30.5928 13.7349 30.5928H31.3844C31.5751 30.5928 31.7579 30.5171 31.8927 30.3823C32.0275 30.2475 32.1032 30.0647 32.1032 29.874V27.9897C32.1032 27.799 32.0275 27.6162 31.8927 27.4814C31.7579 27.3466 31.5751 27.2709 31.3844 27.2709H30.71V19.3495H31.3465V19.3494ZM17.2974 15.5007H17.82L17.2974 15.7367V15.5007ZM30.6659 29.1552H14.4538V28.7083H30.6659V29.1552ZM20.9418 27.2708H18.2486V23.0301H20.9418V27.2708ZM22.3793 27.2708V22.3114C22.3793 22.1207 22.3036 21.9379 22.1688 21.8031C22.034 21.6683 21.8512 21.5926 21.6606 21.5926H17.5298C17.3392 21.5926 17.1564 21.6683 17.0216 21.8031C16.8868 21.9379 16.8111 22.1207 16.8111 22.3114V27.2708H15.847V18.6306C15.8471 18.5264 15.8245 18.4234 15.7807 18.3287C15.737 18.2341 15.6731 18.1502 15.5936 18.0828L22.5599 14.9385L29.5262 18.0828C29.4467 18.1502 29.3828 18.2341 29.339 18.3287C29.2952 18.4233 29.2726 18.5264 29.2727 18.6306V27.2708H22.3793ZM27.4265 19.475H23.4563C23.2657 19.475 23.0829 19.5507 22.9481 19.6855C22.8133 19.8203 22.7376 20.0031 22.7376 20.1937V23.0699C22.7376 23.2605 22.8133 23.4433 22.9481 23.5781C23.0829 23.7129 23.2657 23.7887 23.4563 23.7887H27.4265C27.6172 23.7887 27.8 23.7129 27.9348 23.5781C28.0696 23.4433 28.1453 23.2605 28.1453 23.0699V20.1937C28.1453 20.0031 28.0696 19.8203 27.9348 19.6855C27.8 19.5507 27.6172 19.475 27.4265 19.475ZM26.7078 22.3512H24.1751V20.9125H26.7078V22.3512ZM43.16 10.0255L38.3457 1.51908C37.9172 0.761789 36.9527 0.494324 36.1951 0.922879L34.5575 1.84971C33.8002 2.27835 33.5329 3.243 33.9614 4.0003L34.3597 4.70404L33.6145 5.1343L26.2198 3.15289C24.9189 2.80421 23.6368 2.98596 22.5118 3.67857L11.9203 10.2003C10.8665 10.8493 10.5282 12.4781 11.2108 13.6178C11.2442 13.6734 11.288 13.7403 11.3433 13.8132C9.97107 15.4545 8.96437 17.3911 8.42073 19.45C8.37546 19.6332 8.40402 19.8268 8.50025 19.9891C8.59648 20.1514 8.75266 20.2693 8.93509 20.3175C9.11752 20.3657 9.31157 20.3402 9.47536 20.2465C9.63916 20.1529 9.75957 19.9986 9.81061 19.8169C10.3109 17.922 11.2458 16.1409 12.5237 14.641C13.3348 14.8961 14.5603 14.8293 16.3535 13.7848L22.1897 10.3855C22.3229 10.3076 22.4615 10.2394 22.6045 10.1815C22.5754 10.2604 22.5499 10.3406 22.5282 10.4218C22.2022 11.6386 22.9221 12.9079 24.167 13.3115C24.1978 13.3215 24.2292 13.3294 24.2611 13.3352C25.9218 13.6347 27.5684 14.23 28.8916 14.7084C29.3553 14.8761 29.7934 15.0344 30.1677 15.1557C30.5471 15.2798 30.9438 15.343 31.3429 15.3429C31.8964 15.3429 32.4236 15.2231 32.9211 15.0406C34.2214 16.6897 35.0965 18.5984 35.4957 20.6402L35.0588 20.2335C34.9188 20.1064 34.7343 20.0395 34.5453 20.0475C34.3563 20.0554 34.1781 20.1375 34.0493 20.2759C33.9204 20.4144 33.8513 20.598 33.857 20.7871C33.8626 20.9761 33.9425 21.1553 34.0794 21.2859L35.9571 23.0334C36.0369 23.1077 36.1326 23.1629 36.2369 23.1947C36.3412 23.2266 36.4514 23.2343 36.5591 23.2172C36.6668 23.2002 36.7692 23.1589 36.8586 23.0964C36.948 23.0339 37.022 22.9519 37.075 22.8566L38.3215 20.6147C38.4142 20.4481 38.4368 20.2516 38.3845 20.0682C38.3322 19.8849 38.2092 19.7299 38.0426 19.6373C37.876 19.5447 37.6794 19.522 37.4961 19.5743C37.3128 19.6266 37.1578 19.7496 37.0652 19.9162L36.8838 20.2424C36.4515 18.1257 35.5561 16.1409 34.2456 14.4032C34.2636 14.3929 34.2817 14.3827 34.2996 14.3724L38.4661 11.9601L38.7756 12.5069C39.0656 13.0194 39.601 13.3074 40.1516 13.3074C40.4147 13.3074 40.6813 13.2416 40.9262 13.103L42.5637 12.1763C42.9296 11.9691 43.1934 11.631 43.3062 11.2242C43.4192 10.8172 43.3671 10.3915 43.16 10.0255ZM33.5795 13.1282C32.3035 13.867 31.4435 14.0584 30.6114 13.7884C30.2598 13.6744 29.8524 13.5271 29.3806 13.3565C28.0205 12.8648 26.3312 12.2541 24.5704 11.9303C24.0701 11.7483 23.7902 11.2667 23.917 10.7937C24.0518 10.2907 24.4308 10.0716 25.0425 10.14C25.8904 10.315 26.7002 10.546 27.5566 10.7905C27.9674 10.9078 28.3922 11.0291 28.8295 11.1463C28.8918 11.163 28.9544 11.1709 29.016 11.1709C29.1905 11.171 29.359 11.1077 29.4902 10.9926C29.6215 10.8776 29.7063 10.7188 29.7291 10.5458C29.7518 10.3727 29.7108 10.1974 29.6137 10.0524C29.5167 9.90736 29.3702 9.80261 29.2016 9.75766C28.7756 9.64356 28.3566 9.52389 27.9514 9.40817C27.0568 9.15275 25.2747 8.72024 25.2698 8.71943L24.5436 8.60129C23.4104 8.41989 22.4039 8.59724 21.4666 9.14313L15.6302 12.5425C14.081 13.4449 12.8602 13.5738 12.4441 12.879C12.165 12.4128 12.2831 11.665 12.6742 11.4243L23.2656 4.90251C24.0568 4.41564 24.9254 4.29418 25.8479 4.54125L33.5303 6.59975C33.7144 6.64889 33.9105 6.62308 34.0756 6.52796L35.068 5.95503L37.7584 10.7087L33.5795 13.1282ZM41.8558 10.925L40.2183 11.8517C40.1776 11.8748 40.1378 11.8711 40.1118 11.8639C40.0857 11.8567 40.0499 11.8395 40.0267 11.7987L35.2124 3.29233C35.1946 3.25976 35.1901 3.22152 35.2001 3.18575C35.21 3.14997 35.2335 3.11949 35.2656 3.10078L36.9032 2.17404C36.9357 2.15615 36.974 2.15169 37.0098 2.16161C37.0455 2.17153 37.076 2.19505 37.0947 2.22714L41.909 10.7335C41.9268 10.7661 41.9313 10.8043 41.9213 10.8401C41.9114 10.8758 41.8879 10.9063 41.8558 10.925ZM40.9991 10.2146C41.0103 10.2906 41.0063 10.368 40.9875 10.4424C40.9687 10.5169 40.9354 10.5869 40.8895 10.6484C40.8436 10.71 40.7861 10.7619 40.7201 10.8013C40.6542 10.8406 40.5812 10.8666 40.5052 10.8777C40.4291 10.889 40.3516 10.8852 40.2769 10.8665C40.2023 10.8479 40.1321 10.8146 40.0704 10.7688C40.0087 10.7229 39.9566 10.6653 39.9171 10.5993C39.8777 10.5333 39.8516 10.4601 39.8405 10.384C39.8294 10.3079 39.8334 10.2304 39.8523 10.1558C39.8712 10.0813 39.9046 10.0112 39.9506 9.94955C39.9966 9.88793 40.0544 9.836 40.1205 9.79674C40.1866 9.75748 40.2599 9.73165 40.336 9.72074C40.412 9.70962 40.4894 9.71357 40.5638 9.73237C40.6383 9.75117 40.7083 9.78446 40.7699 9.83032C40.8315 9.87618 40.8834 9.93372 40.9227 9.99966C40.9621 10.0656 40.988 10.1386 40.9991 10.2146Z" fill="white"/>
</svg>
